<?xml version="1.0" standalone="no"?>
<!DOCTYPE svg PUBLIC "-//W3C//DTD SVG 20010904//EN"
 "http://www.w3.org/TR/2001/REC-SVG-20010904/DTD/svg10.dtd">
<svg version="1.0" xmlns="http://www.w3.org/2000/svg"
 width="1670.000000pt" height="1670.000000pt" viewBox="0 0 1670.000000 1670.000000"
 preserveAspectRatio="xMidYMid meet">
<metadata>
Created by potrace 1.14, written by Peter Selinger 2001-2017
</metadata>
<g transform="translate(0.000000,1670.000000) scale(0.100000,-0.100000)"
fill="#000000" stroke="none">
<path d="M1375 11979 c-178 -20 -397 -92 -569 -187 -429 -238 -725 -678 -785
-1167 -8 -63 -11 -954 -11 -3005 l0 -2915 6807 3 c3745 1 7197 3 7673 5 849 3
867 4 962 25 625 142 1081 600 1215 1222 17 81 18 196 18 2390 l0 2305 -23
104 c-149 663 -689 1151 -1352 1221 -121 12 -13820 11 -13935 -1z m1855 -1054
c205 -32 401 -90 542 -161 51 -26 68 -39 68 -55 0 -20 -147 -386 -210 -524
-16 -36 -30 -69 -30 -74 0 -4 -9 -16 -19 -25 -19 -17 -23 -16 -108 22 -182 81
-340 120 -528 129 -159 7 -258 -7 -342 -48 -57 -27 -113 -77 -113 -100 0 -5
16 -27 36 -49 45 -50 135 -85 339 -134 394 -95 457 -111 549 -143 169 -59 247
-105 359 -212 83 -80 118 -134 152 -234 56 -169 37 -498 -39 -670 -115 -262
-382 -444 -751 -513 -140 -27 -561 -27 -715 -1 -248 42 -438 102 -615 195
-132 70 -142 84 -114 156 39 99 242 551 253 563 9 10 38 -1 137 -50 272 -138
590 -205 845 -177 124 13 203 40 253 85 l36 33 -17 35 c-34 72 -124 106 -533
207 -420 103 -540 149 -679 260 -139 110 -213 239 -237 415 -15 108 1 346 32
456 99 359 444 586 959 633 90 8 388 -4 490 -19z m2044 -36 c22 -10 26 -21 37
-100 6 -49 17 -93 23 -98 6 -5 61 -28 121 -51 142 -53 143 -54 119 -122 l-19
-53 -125 -35 c-69 -19 -130 -38 -136 -42 -5 -3 -21 -43 -34 -88 -26 -87 -52
-117 -88 -106 -11 4 -61 38 -113 77 l-94 70 -80 -6 c-44 -3 -109 -8 -145 -11
-47 -4 -70 -1 -84 9 -18 13 -18 15 -1 68 11 35 32 70 61 99 24 25 44 49 44 53
0 4 -21 35 -46 70 -40 54 -45 67 -41 100 7 54 32 87 65 87 15 0 83 -9 151 -20
l124 -21 87 50 c81 47 142 81 147 81 1 0 13 -5 27 -11z m2495 1 c10 -5 38 -42
61 -82 180 -305 546 -915 555 -926 9 -10 75 93 313 492 166 278 311 510 322
516 14 7 127 10 345 8 320 -3 325 -3 347 -25 42 -43 32 -70 -124 -333 -80
-135 -306 -516 -502 -847 l-356 -603 0 -418 0 -419 -23 -34 c-39 -58 -45 -59
-356 -59 l-283 0 -39 39 -39 39 0 429 0 429 -296 490 c-448 739 -581 959 -651
1074 -80 134 -82 176 -10 220 30 19 53 20 375 20 201 0 351 -4 361 -10z m2756
-4 c68 -29 65 3 65 -793 0 -411 5 -748 10 -788 39 -282 186 -433 436 -452 254
-18 422 91 500 327 17 51 19 115 24 835 5 708 7 783 22 818 29 63 49 67 355
67 235 0 272 -2 303 -18 19 -9 40 -28 48 -42 10 -20 12 -189 9 -820 -4 -850
-6 -901 -58 -1105 -112 -439 -435 -719 -912 -789 -238 -36 -558 -14 -752 50
-218 71 -418 217 -534 387 -54 79 -120 230 -145 329 -43 169 -46 232 -46 1096
0 909 -3 869 63 897 47 21 563 21 612 1z m4392 -18 c26 -26 27 -32 31 -153 3
-69 1 -185 -3 -259 l-7 -135 -107 -128 c-60 -70 -332 -393 -605 -718 l-497
-590 616 -5 617 -5 19 -24 c18 -22 19 -43 19 -336 0 -272 -2 -316 -16 -329
-14 -14 -132 -16 -1148 -16 -1110 0 -1133 0 -1151 19 -15 18 -17 47 -19 293
l-1 273 166 195 c91 107 363 429 604 715 l438 520 -568 5 -567 5 -19 24 c-18
22 -19 43 -19 323 0 193 4 306 11 319 6 11 20 24 32 29 12 5 484 8 1084 7
l1063 -2 27 -27z m-8537 -134 l5 -69 84 -47 c46 -25 88 -51 93 -56 6 -6 3 -23
-10 -48 l-20 -39 -97 -15 -97 -15 -27 -65 c-38 -89 -53 -90 -140 -7 l-67 65
-106 7 c-58 4 -111 11 -119 15 -23 15 6 85 51 121 l39 32 -31 56 c-33 59 -34
86 -4 126 14 20 15 20 83 1 153 -42 150 -42 238 -3 104 47 118 40 125 -59z
m392 -449 l71 -75 87 0 c117 0 120 -5 84 -108 l-28 -78 53 -87 c53 -89 54 -92
17 -134 -24 -28 -46 -29 -121 -3 -32 11 -66 20 -75 20 -9 0 -36 -22 -61 -50
-44 -50 -68 -61 -86 -37 -5 6 -20 49 -33 95 -25 90 -27 92 -129 155 -34 21
-65 44 -68 53 -8 21 43 72 95 96 l42 19 0 69 c0 63 3 72 31 105 17 19 35 35
41 35 5 0 41 -34 80 -75z m-2199 -370 c75 -41 142 -75 149 -75 8 0 77 25 155
55 160 62 198 67 214 31 9 -20 4 -49 -31 -164 -31 -105 -39 -145 -31 -159 5
-10 55 -63 110 -118 62 -61 101 -107 101 -120 0 -29 -100 -165 -124 -170 -12
-2 -91 -9 -176 -14 -144 -9 -156 -12 -172 -33 -9 -13 -52 -72 -95 -133 -44
-60 -87 -111 -97 -113 -50 -10 -61 4 -126 147 -34 77 -70 143 -79 146 -9 4
-82 19 -164 35 -81 15 -154 33 -162 40 -26 21 -17 56 31 124 32 46 70 83 130
126 95 69 89 54 74 210 -11 102 -11 103 16 144 59 90 85 116 114 116 16 0 85
-32 163 -75z m2368 -475 c41 -49 83 -92 95 -95 11 -4 58 1 104 9 115 22 147
21 161 -6 10 -19 3 -37 -51 -142 l-63 -121 52 -114 c28 -63 51 -122 51 -131 0
-17 -103 -130 -117 -130 -4 1 -58 11 -120 24 l-111 23 -94 -94 c-51 -51 -100
-93 -109 -93 -29 0 -41 27 -50 112 -5 46 -11 101 -13 123 -3 22 -5 43 -5 47
-1 3 -50 34 -111 68 -97 55 -110 65 -110 88 0 40 89 126 171 168 59 29 69 38
74 66 3 18 12 68 19 111 12 73 17 82 62 128 28 28 57 49 70 49 14 0 44 -28 95
-90z m-1259 -377 l118 -118 157 23 c87 13 166 20 176 16 10 -4 23 -18 28 -32
8 -21 -2 -45 -66 -162 -41 -76 -75 -144 -75 -151 0 -6 32 -72 70 -145 39 -73
70 -141 70 -152 0 -11 -30 -48 -71 -87 -58 -55 -76 -66 -98 -63 -14 3 -87 15
-162 28 l-137 24 -120 -112 c-173 -162 -189 -157 -217 68 -10 74 -23 143 -29
154 -6 10 -74 50 -151 90 -127 64 -140 74 -143 100 -6 48 94 140 217 201 l99
48 17 126 18 126 67 68 c45 46 74 67 91 67 17 0 56 -33 141 -117z m-1057
-1489 c295 -52 561 -266 663 -532 49 -128 57 -180 56 -382 -1 -218 -16 -290
-89 -435 -82 -162 -206 -286 -375 -374 -256 -134 -623 -143 -892 -22 -252 113
-441 343 -493 600 -33 166 -26 410 16 548 138 445 593 690 1114 597z m-2357
-26 c9 -9 12 -100 12 -347 l1 -336 72 75 c40 41 186 198 325 348 l254 272 241
0 c210 0 243 -2 259 -17 23 -20 23 -71 1 -103 -9 -14 -143 -169 -298 -345
-154 -176 -286 -328 -293 -337 -11 -14 8 -43 144 -220 536 -692 534 -690 534
-715 0 -42 -15 -43 -306 -41 l-278 3 -231 292 c-126 160 -234 295 -239 300 -4
4 -48 -35 -97 -87 l-89 -95 0 -183 c0 -249 19 -232 -260 -232 l-210 0 0 878
c0 670 3 881 12 890 9 9 72 12 223 12 151 0 214 -3 223 -12z m3882 -179 c85
-102 249 -299 364 -438 115 -138 210 -250 212 -248 2 2 4 176 4 388 1 386 6
464 31 480 8 5 101 9 208 9 167 0 197 -2 213 -17 17 -15 18 -55 18 -871 0
-782 -1 -857 -17 -874 -14 -16 -34 -18 -194 -18 -144 0 -180 3 -192 15 -9 8
-174 207 -369 441 l-353 427 -5 -425 c-4 -340 -8 -428 -19 -441 -12 -15 -40
-17 -214 -17 -172 0 -203 2 -219 17 -17 15 -18 55 -18 871 0 786 1 857 17 874
15 17 32 18 197 16 l181 -3 155 -186z m2485 158 c326 -88 537 -287 617 -582
19 -69 21 -106 21 -275 0 -170 -2 -205 -21 -275 -83 -300 -285 -493 -612 -583
l-95 -26 -484 -4 c-445 -3 -485 -2 -502 14 -18 17 -19 45 -19 856 0 619 3 845
12 861 25 48 15 47 513 44 l470 -3 100 -27z m1346 14 l24 -19 0 -850 c0 -822
-1 -851 -19 -871 -18 -20 -28 -21 -218 -21 -185 0 -199 1 -218 20 -20 20 -20
33 -20 870 0 837 0 850 20 870 19 19 33 20 214 20 176 0 196 -2 217 -19z
m1703 -3 c22 -31 24 -404 2 -434 -13 -18 -30 -19 -260 -22 l-246 -3 0 -637 c0
-483 -3 -641 -12 -650 -9 -9 -74 -12 -230 -12 -205 0 -218 1 -228 19 -6 13
-10 235 -10 650 l0 630 -245 3 c-181 2 -247 6 -257 16 -19 19 -18 422 1 445
12 16 76 17 742 17 l728 0 15 -22z m1500 0 c13 -18 16 -56 16 -203 0 -99 -3
-190 -6 -201 -11 -42 -36 -44 -449 -44 l-395 0 0 -90 0 -90 353 0 c289 0 357
-3 373 -14 17 -13 19 -29 21 -197 1 -176 -5 -225 -30 -241 -7 -4 -171 -8 -364
-8 l-353 0 0 -104 0 -105 419 0 c230 -1 426 -3 434 -7 23 -9 27 -36 27 -229 0
-147 -3 -185 -16 -203 l-15 -22 -643 0 c-539 0 -645 2 -662 14 -19 14 -19 36
-22 870 -2 846 -2 856 18 876 20 20 32 20 649 20 l630 0 15 -22z m1341 -6
c134 -37 240 -95 320 -176 126 -127 165 -238 165 -466 0 -215 -40 -337 -145
-446 -28 -28 -70 -61 -93 -73 -23 -12 -42 -25 -42 -29 0 -4 56 -88 125 -187
137 -196 175 -264 175 -311 0 -62 -11 -65 -270 -62 l-233 3 -146 217 -146 217
-132 1 -133 0 0 -202 c0 -173 -2 -204 -17 -220 -15 -16 -35 -18 -221 -18 -177
0 -208 2 -224 17 -17 15 -18 55 -18 871 0 793 1 857 17 874 17 18 36 19 478
16 436 -4 464 -5 540 -26z"/>
<path d="M4293 7085 c-165 -45 -288 -175 -324 -345 -22 -104 10 -227 87 -329
83 -110 208 -171 353 -171 190 0 330 90 413 266 30 63 33 77 33 164 0 89 -2
100 -37 172 -23 49 -56 97 -86 127 -111 111 -286 157 -439 116z"/>
<path d="M8020 6670 l0 -410 198 0 c218 0 260 7 365 63 72 38 130 101 171 187
28 59 31 74 31 160 0 86 -3 101 -32 163 -37 78 -111 155 -184 192 -85 44 -158
55 -361 55 l-188 0 0 -410z"/>
<path d="M13970 6889 l0 -201 183 5 c211 5 243 13 309 77 71 69 78 150 17 223
-62 75 -146 97 -371 97 l-138 0 0 -201z"/>
</g>
</svg>
